<?xml version="1.0" standalone="no"?>
<!DOCTYPE svg PUBLIC "-//W3C//DTD SVG 20010904//EN"
 "http://www.w3.org/TR/2001/REC-SVG-20010904/DTD/svg10.dtd">
<svg version="1.0" xmlns="http://www.w3.org/2000/svg"
 width="256.000000pt" height="256.000000pt" viewBox="0 0 256.000000 256.000000"
 preserveAspectRatio="xMidYMid meet">
<metadata>
Created by potrace 1.11, written by Peter Selinger 2001-2013
</metadata>
<g transform="translate(0.000000,256.000000) scale(0.100000,-0.100000)"
fill="#000000" stroke="none">
<path d="M123 1413 l0 -753 21 -1 c12 0 174 -1 361 -1 l340 0 -1 -52 c-1 -61
18 -97 66 -131 84 -58 219 -84 415 -81 158 3 253 22 329 64 70 38 91 70 91
140 l0 57 335 2 c184 1 341 2 348 2 10 1 12 155 10 754 l-3 752 -1156 1 -1156
1 0 -754z"/>
</g>
</svg>
